<mxfile host="Electron" agent="Mozilla/5.0 (Macintosh; Intel Mac OS X 10_15_7) AppleWebKit/537.36 (KHTML, like Gecko) draw.io/24.7.17 Chrome/128.0.6613.36 Electron/32.0.1 Safari/537.36" version="24.7.17">
  <diagram name="Page-1" id="8t9RZY_tuuYkVdEXaDu6">
    <mxGraphModel dx="1193" dy="774" grid="1" gridSize="10" guides="1" tooltips="1" connect="1" arrows="1" fold="1" page="1" pageScale="1" pageWidth="827" pageHeight="1169" math="0" shadow="0">
      <root>
        <mxCell id="0" />
        <mxCell id="1" parent="0" />
        <mxCell id="JLQpy8aDqcjAvPLBubWV-1" value="" style="rounded=1;whiteSpace=wrap;html=1;strokeWidth=3;fillColor=#f5f5f5;strokeColor=#000000;fontColor=#333333;movable=1;resizable=1;rotatable=1;deletable=1;editable=1;locked=0;connectable=1;container=0;" vertex="1" parent="1">
          <mxGeometry x="350" y="630" width="170" height="110" as="geometry" />
        </mxCell>
        <mxCell id="JLQpy8aDqcjAvPLBubWV-3" value="" style="edgeStyle=orthogonalEdgeStyle;rounded=1;orthogonalLoop=1;jettySize=auto;html=1;fillColor=#bac8d3;strokeColor=#000000;strokeWidth=2;entryX=0.308;entryY=1.05;entryDx=0;entryDy=0;entryPerimeter=0;curved=0;" edge="1" parent="1">
          <mxGeometry relative="1" as="geometry">
            <mxPoint x="140" y="668" as="sourcePoint" />
            <mxPoint x="186.96000000000004" y="625" as="targetPoint" />
            <Array as="points">
              <mxPoint x="140" y="650" />
              <mxPoint x="187" y="650" />
            </Array>
          </mxGeometry>
        </mxCell>
        <mxCell id="JLQpy8aDqcjAvPLBubWV-5" value="User&lt;div&gt;Embedding&lt;/div&gt;" style="rounded=1;whiteSpace=wrap;html=1;fillColor=#bac8d3;strokeColor=#23445d;strokeWidth=3;" vertex="1" parent="1">
          <mxGeometry x="80" y="670" width="120" height="40" as="geometry" />
        </mxCell>
        <mxCell id="JLQpy8aDqcjAvPLBubWV-6" style="edgeStyle=orthogonalEdgeStyle;rounded=1;orthogonalLoop=1;jettySize=auto;html=1;exitX=0.5;exitY=0;exitDx=0;exitDy=0;entryX=0.75;entryY=1;entryDx=0;entryDy=0;fillColor=#f8cecc;strokeColor=#000000;strokeWidth=2;curved=0;" edge="1" parent="1" source="JLQpy8aDqcjAvPLBubWV-8" target="JLQpy8aDqcjAvPLBubWV-18">
          <mxGeometry relative="1" as="geometry">
            <mxPoint x="275" y="620" as="targetPoint" />
            <Array as="points">
              <mxPoint x="275" y="650" />
              <mxPoint x="240" y="650" />
            </Array>
          </mxGeometry>
        </mxCell>
        <mxCell id="JLQpy8aDqcjAvPLBubWV-8" value="Item&lt;div&gt;Embedding&lt;/div&gt;" style="rounded=1;whiteSpace=wrap;html=1;fillColor=#f8cecc;strokeColor=#b85450;strokeWidth=3;" vertex="1" parent="1">
          <mxGeometry x="215" y="670" width="120" height="40" as="geometry" />
        </mxCell>
        <mxCell id="JLQpy8aDqcjAvPLBubWV-10" style="edgeStyle=orthogonalEdgeStyle;rounded=1;orthogonalLoop=1;jettySize=auto;html=1;exitX=0.5;exitY=0;exitDx=0;exitDy=0;entryX=0.25;entryY=1;entryDx=0;entryDy=0;curved=0;strokeWidth=2;" edge="1" parent="1" target="JLQpy8aDqcjAvPLBubWV-13">
          <mxGeometry relative="1" as="geometry">
            <Array as="points">
              <mxPoint x="140" y="650" />
              <mxPoint x="360" y="650" />
              <mxPoint x="360" y="730" />
              <mxPoint x="410" y="730" />
            </Array>
            <mxPoint x="140" y="670" as="sourcePoint" />
          </mxGeometry>
        </mxCell>
        <mxCell id="JLQpy8aDqcjAvPLBubWV-12" style="edgeStyle=orthogonalEdgeStyle;rounded=0;orthogonalLoop=1;jettySize=auto;html=1;exitX=0.5;exitY=0;exitDx=0;exitDy=0;strokeWidth=2;" edge="1" parent="1" source="JLQpy8aDqcjAvPLBubWV-13">
          <mxGeometry relative="1" as="geometry">
            <mxPoint x="440" y="650" as="targetPoint" />
          </mxGeometry>
        </mxCell>
        <mxCell id="JLQpy8aDqcjAvPLBubWV-13" value="Aspect &lt;i&gt;a&lt;/i&gt;&lt;div&gt;Rating Prediction&lt;/div&gt;" style="rounded=1;whiteSpace=wrap;html=1;fillColor=#d5e8d4;strokeColor=#82b366;strokeWidth=3;" vertex="1" parent="1">
          <mxGeometry x="380" y="670" width="120" height="40" as="geometry" />
        </mxCell>
        <mxCell id="JLQpy8aDqcjAvPLBubWV-18" value="Overall&lt;div&gt;Rating Prediction&lt;/div&gt;" style="rounded=1;whiteSpace=wrap;html=1;fillColor=#d5e8d4;strokeColor=#82b366;strokeWidth=3;" vertex="1" parent="1">
          <mxGeometry x="150" y="585" width="120" height="40" as="geometry" />
        </mxCell>
        <mxCell id="JLQpy8aDqcjAvPLBubWV-19" style="edgeStyle=none;curved=1;rounded=0;orthogonalLoop=1;jettySize=auto;html=1;entryX=0.5;entryY=1;entryDx=0;entryDy=0;fontSize=12;startSize=8;endSize=8;fillColor=#bac8d3;strokeColor=#000000;strokeWidth=2;" edge="1" parent="1" source="JLQpy8aDqcjAvPLBubWV-20" target="JLQpy8aDqcjAvPLBubWV-5">
          <mxGeometry relative="1" as="geometry" />
        </mxCell>
        <mxCell id="JLQpy8aDqcjAvPLBubWV-20" value="User &lt;i&gt;u&lt;/i&gt;" style="text;html=1;align=center;verticalAlign=middle;resizable=0;points=[];autosize=1;strokeColor=none;fillColor=none;fontSize=16;" vertex="1" parent="1">
          <mxGeometry x="105" y="730" width="70" height="30" as="geometry" />
        </mxCell>
        <mxCell id="JLQpy8aDqcjAvPLBubWV-21" style="edgeStyle=none;curved=1;rounded=0;orthogonalLoop=1;jettySize=auto;html=1;entryX=0.5;entryY=1;entryDx=0;entryDy=0;fontSize=12;startSize=8;endSize=8;fillColor=#f8cecc;strokeColor=#000000;strokeWidth=2;" edge="1" parent="1" source="JLQpy8aDqcjAvPLBubWV-22" target="JLQpy8aDqcjAvPLBubWV-8">
          <mxGeometry relative="1" as="geometry" />
        </mxCell>
        <mxCell id="JLQpy8aDqcjAvPLBubWV-22" value="Item &lt;i&gt;i&lt;/i&gt;" style="text;html=1;align=center;verticalAlign=middle;resizable=0;points=[];autosize=1;strokeColor=none;fillColor=none;fontSize=16;" vertex="1" parent="1">
          <mxGeometry x="245" y="730" width="60" height="30" as="geometry" />
        </mxCell>
        <mxCell id="JLQpy8aDqcjAvPLBubWV-24" style="edgeStyle=orthogonalEdgeStyle;rounded=1;orthogonalLoop=1;jettySize=auto;html=1;exitX=0.5;exitY=0;exitDx=0;exitDy=0;entryX=0.75;entryY=1;entryDx=0;entryDy=0;strokeWidth=2;curved=0;" edge="1" parent="1" target="JLQpy8aDqcjAvPLBubWV-13">
          <mxGeometry relative="1" as="geometry">
            <Array as="points">
              <mxPoint x="275" y="650" />
              <mxPoint x="360" y="650" />
              <mxPoint x="360" y="730" />
              <mxPoint x="470" y="730" />
            </Array>
            <mxPoint x="275" y="670" as="sourcePoint" />
          </mxGeometry>
        </mxCell>
        <mxCell id="JLQpy8aDqcjAvPLBubWV-26" value="&lt;i&gt;a &lt;/i&gt;rating" style="text;html=1;align=center;verticalAlign=middle;resizable=0;points=[];autosize=1;strokeColor=none;fillColor=none;" vertex="1" parent="1">
          <mxGeometry x="410" y="630" width="60" height="30" as="geometry" />
        </mxCell>
        <mxCell id="JLQpy8aDqcjAvPLBubWV-27" value="(u, i)&amp;nbsp;&lt;span style=&quot;background-color: initial;&quot;&gt;rating&lt;/span&gt;" style="text;html=1;align=center;verticalAlign=middle;resizable=0;points=[];autosize=1;strokeColor=none;fillColor=none;" vertex="1" parent="1">
          <mxGeometry x="170" y="520" width="80" height="30" as="geometry" />
        </mxCell>
        <mxCell id="JLQpy8aDqcjAvPLBubWV-28" style="edgeStyle=orthogonalEdgeStyle;rounded=0;orthogonalLoop=1;jettySize=auto;html=1;exitX=0.5;exitY=0;exitDx=0;exitDy=0;entryX=0.508;entryY=1.028;entryDx=0;entryDy=0;entryPerimeter=0;strokeWidth=2;" edge="1" parent="1" source="JLQpy8aDqcjAvPLBubWV-18" target="JLQpy8aDqcjAvPLBubWV-27">
          <mxGeometry relative="1" as="geometry" />
        </mxCell>
      </root>
    </mxGraphModel>
  </diagram>
</mxfile>
